<?xml version="1.0" encoding="UTF-8" standalone="no"?>
<!-- Generated from public/favicon.svg to be served by App Router -->
<svg
   width="512"
   height="512"
   viewBox="0 0 210 210"
   version="1.1"
   xmlns="http://www.w3.org/2000/svg">
  <g id="layer1">
    <g transform="matrix(0.36195336,0,0,0.37177477,-70.996564,-28.838917)">
      <path d="m 285.361,244.022 199.009,-114.8 202.666,117.009 0.085,229.747 -199.009,114.8 -202.666,-117.009 z" stroke="#2082c5" stroke-width="96.6667" stroke-linecap="round" stroke-linejoin="round" stroke-miterlimit="10" fill="#2082c5" fill-rule="evenodd" />
      <path d="m 352.154,282.585 134.841,-75.473 131.274,75.791 2.059,154.512 -134.841,75.473 -131.273,-75.791 z" stroke="#ffffff" stroke-width="26.3333" stroke-linecap="round" stroke-linejoin="round" stroke-miterlimit="10" fill="#ffffff" fill-rule="evenodd" />
      <path d="m 519,533.5 c 0,-52.743 42.757,-95.5 95.5,-95.5 52.743,0 95.5,42.757 95.5,95.5 0,52.743 -42.757,95.5 -95.5,95.5 -52.743,0 -95.5,-42.757 -95.5,-95.5 z" fill="#ffffff" fill-rule="evenodd" />
      <path d="m 574.753,563.4 -91.968,-120.269 33.539,-34.532 122.901,88.42 z" fill="#e28a50" fill-rule="evenodd" />
      <path d="m 539,533 c 0,-41.974 34.026,-76 76,-76 41.974,0 76,34.026 76,76 0,41.974 -34.026,76 -76,76 -41.974,0 -76,-34.026 -76,-76 z" fill="#c56220" fill-rule="evenodd" />
      <path d="m 355,491 c 0,-23.748 19.476,-43 43.5,-43 24.024,0 43.5,19.252 43.5,43 0,23.748 -19.476,43 -43.5,43 -24.024,0 -43.5,-19.252 -43.5,-43 z" fill="#ffffff" fill-rule="evenodd" />
      <path d="m 499.583,455.144 -89.664,51.661 -15.957,-23.49 81.066,-64.317 z" fill="#e28a50" fill-rule="evenodd" />
      <path d="m 370,492 c 0,-15.464 12.536,-28 28,-28 15.464,0 28,12.536 28,28 0,15.464 -12.536,28 -28,28 -15.464,0 -28,-12.536 -28,-28 z" fill="#c56220" fill-rule="evenodd" />
      <path d="m 472,282.5 c 0,-37.279 30.221,-67.5 67.5,-67.5 37.279,0 67.5,30.221 67.5,67.5 0,37.279 -30.221,67.5 -67.5,67.5 -37.279,0 -67.5,-30.221 -67.5,-67.5 z" fill="#ffffff" fill-rule="evenodd" />
      <path d="m 566.307,319.759 -34.985,97.46 -44.773,-12.027 18.56,-101.872 z" fill="#e28a50" fill-rule="evenodd" />
      <path d="m 486,284.5 c 0,-29.547 24.177,-53.5 54,-53.5 29.823,0 54,23.953 54,53.5 0,29.547 -24.177,53.5 -54,53.5 -29.823,0 -54,-23.953 -54,-53.5 z" fill="#c56220" fill-rule="evenodd" />
      <path d="m 454,429.5 c 0,-27.338 22.162,-49.5 49.5,-49.5 27.338,0 49.5,22.162 49.5,49.5 0,27.338 -22.162,49.5 -49.5,49.5 -27.338,0 -49.5,-22.162 -49.5,-49.5 z" fill="#c56220" fill-rule="evenodd" />
    </g>
  </g>
</svg>
